<svg aria-hidden="true" style="position: absolute; width: 0; height: 0; overflow: hidden;" version="1.1" xmlns="http://www.w3.org/2000/svg" xmlns:xlink="http://www.w3.org/1999/xlink">
<defs>
<symbol id="icon-burger-menu" viewBox="0 0 32 32">
<path fill="#1b4f72" style="fill: var(--color1, #1b4f72)" d="M29.055 4.017h-26.11c-1.624 0-2.945 1.321-2.945 2.947 0 1.624 1.321 2.945 2.945 2.945h26.11c1.624 0 2.945-1.321 2.945-2.945 0-1.626-1.321-2.947-2.945-2.947z"></path>
<path fill="#1b4f72" style="fill: var(--color1, #1b4f72)" d="M29.055 13.054h-26.11c-1.624 0-2.945 1.321-2.945 2.947 0 1.624 1.321 2.945 2.945 2.945h26.11c1.624 0 2.945-1.321 2.945-2.945 0-1.626-1.321-2.947-2.945-2.947v0z"></path>
<path fill="#1b4f72" style="fill: var(--color1, #1b4f72)" d="M29.055 22.092h-26.11c-1.624 0-2.945 1.321-2.945 2.947 0 1.624 1.321 2.945 2.945 2.945h26.11c1.624 0 2.945-1.321 2.945-2.945 0-1.626-1.321-2.947-2.945-2.947z"></path>
</symbol>
<symbol id="icon-close-modal" viewBox="0 0 32 32">
<path fill="#1b4f72" style="fill: var(--color1, #1b4f72)" d="M28.241 23.746l-21.1-21.1c-1.312-1.312-3.447-1.312-4.761 0.002-1.312 1.312-1.312 3.447 0 4.76l21.1 21.1c1.312 1.312 3.447 1.312 4.76 0 1.314-1.314 1.314-3.449 0.002-4.761z"></path>
<path fill="#1b4f72" style="fill: var(--color1, #1b4f72)" d="M2.452 23.48l21.1-21.1c1.312-1.312 3.447-1.312 4.761 0.002 1.312 1.312 1.312 3.447 0 4.76l-21.1 21.1c-1.312 1.312-3.447 1.312-4.76 0-1.314-1.314-1.314-3.449-0.002-4.761z"></path>
</symbol>
<symbol id="icon-facebook" viewBox="0 0 33 32">
<path fill="#fff" style="fill: var(--color2, #fff)" d="M27.552 0h-22.625c-2.584 0-4.688 2.103-4.688 4.688v22.625c0 2.584 2.103 4.687 4.688 4.687h9.438v-11.313h-3.75v-5.625h3.75v-3.813c0-3.102 2.523-5.625 5.625-5.625h5.688v5.625h-5.688v3.813h5.688l-0.938 5.625h-4.75v11.313h7.562c2.584 0 4.688-2.103 4.688-4.687v-22.625c0-2.584-2.103-4.688-4.688-4.688z"></path>
</symbol>
<symbol id="icon-input-company" viewBox="0 0 32 32">
<path fill="#2874a6" style="fill: var(--color3, #2874a6)" d="M31.463 14.305l-14.357-13.082c-0.63-0.574-1.581-0.574-2.21-0l-14.357 13.082c-0.505 0.46-0.672 1.169-0.425 1.806s0.847 1.048 1.53 1.048h2.293v13.108c0 0.52 0.421 0.941 0.941 0.941h7.87c0.52 0 0.941-0.421 0.941-0.941v-7.959h4.625v7.959c0 0.52 0.421 0.941 0.941 0.941h7.869c0.52 0 0.941-0.421 0.941-0.941v-13.108h2.294c0.683 0 1.283-0.412 1.53-1.048s0.080-1.346-0.425-1.806z"></path>
<path fill="#2874a6" style="fill: var(--color3, #2874a6)" d="M27.818 2.671h-6.32l7.261 6.602v-5.661c0-0.52-0.421-0.941-0.941-0.941z"></path>
</symbol>
<symbol id="icon-input-email" viewBox="0 0 32 32">
<path fill="#2874a6" style="fill: var(--color3, #2874a6)" d="M21.212 16.163l10.788 6.82v-13.928l-10.788 7.108z"></path>
<path fill="#2874a6" style="fill: var(--color3, #2874a6)" d="M0 9.055v13.928l10.788-6.82-10.788-7.108z"></path>
<path fill="#2874a6" style="fill: var(--color3, #2874a6)" d="M30 5h-28c-0.998 0-1.79 0.744-1.94 1.702l15.94 10.502 15.94-10.502c-0.15-0.958-0.942-1.702-1.94-1.702z"></path>
<path fill="#2874a6" style="fill: var(--color3, #2874a6)" d="M19.38 17.372l-2.83 1.864c-0.168 0.11-0.358 0.164-0.55 0.164s-0.382-0.054-0.55-0.164l-2.83-1.866-12.556 7.942c0.154 0.95 0.942 1.688 1.936 1.688h28c0.994 0 1.782-0.738 1.936-1.688l-12.556-7.94z"></path>
</symbol>
<symbol id="icon-input-message" viewBox="0 0 32 32">
<path fill="#2874a6" style="fill: var(--color3, #2874a6)" d="M4.659 30.088h-2.267l1.603-1.603c0.864-0.864 1.404-1.989 1.549-3.209-3.702-2.429-5.544-5.949-5.544-9.639 0-6.807 6.256-13.724 16.054-13.724 10.38 0 15.946 6.365 15.946 13.128 0 6.807-5.625 13.168-15.946 13.168-1.808 0-3.695-0.241-5.379-0.684-1.595 1.635-3.755 2.562-6.016 2.562z"></path>
</symbol>
<symbol id="icon-input-name" viewBox="0 0 32 32">
<path fill="#2874a6" style="fill: var(--color3, #2874a6)" d="M16 0c-4.652 0-8.438 3.785-8.438 8.438s3.785 8.438 8.438 8.438c4.652 0 8.438-3.785 8.438-8.438s-3.785-8.438-8.438-8.438z"></path>
<path fill="#2874a6" style="fill: var(--color3, #2874a6)" d="M26.498 22.387c-2.31-2.346-5.372-3.637-8.623-3.637h-3.75c-3.251 0-6.313 1.292-8.623 3.637-2.299 2.334-3.565 5.415-3.565 8.675 0 0.518 0.42 0.938 0.938 0.938h26.25c0.518 0 0.938-0.42 0.938-0.938 0-3.26-1.266-6.341-3.565-8.675z"></path>
</symbol>
<symbol id="icon-input-phone" viewBox="0 0 35 32">
<path fill="#2874a6" style="fill: var(--color3, #2874a6)" d="M33.723 23.485l-4.838-4.466c-1.728-1.595-4.665-0.957-5.356 1.116-0.518 1.435-2.246 2.233-3.801 1.914-3.456-0.797-8.121-4.944-8.985-8.293-0.518-1.435 0.518-3.030 2.073-3.509 2.246-0.638 2.937-3.349 1.209-4.944l-4.838-4.466c-1.382-1.116-3.456-1.116-4.665 0l-3.283 3.030c-3.283 3.19 0.346 11.643 8.466 19.139s17.278 11.005 20.734 7.815l3.283-3.030c1.209-1.276 1.209-3.19 0-4.306z"></path>
</symbol>
<symbol id="icon-link" viewBox="0 0 33 32">
<path fill="#fff" style="fill: var(--color2, #fff)" d="M30.172 0h-27.384c-1.275 0-2.308 1.033-2.308 2.308v27.384c0 1.275 1.033 2.308 2.308 2.308h27.384c1.275 0 2.308-1.033 2.308-2.308v-27.384c0-1.275-1.033-2.308-2.308-2.308v0zM11.83 24.187h-3.897v-11.723h3.897v11.723zM9.882 10.863h-0.025c-1.308 0-2.153-0.9-2.153-2.025 0-1.15 0.872-2.026 2.205-2.026s2.153 0.875 2.179 2.026c0 1.125-0.846 2.025-2.205 2.025zM25.881 24.187h-3.896v-6.272c0-1.576-0.564-2.651-1.974-2.651-1.076 0-1.718 0.725-1.999 1.425-0.103 0.25-0.128 0.601-0.128 0.951v6.547h-3.896c0 0 0.051-10.624 0-11.723h3.896v1.66c0.518-0.799 1.444-1.935 3.512-1.935 2.564 0 4.486 1.676 4.486 5.276v6.722z"></path>
</symbol>
<symbol id="icon-Logo-second" viewBox="0 0 28 32">
<path fill="#2874a6" style="fill: var(--color3, #2874a6)" d="M27.178 7.671l-13.108 7.671-2.639-1.535 10.486-6.137-2.639-1.534-10.486 6.137-7.916-4.603 13.108-7.671 2.639 1.534-10.486 6.137 2.639 1.534 10.486-6.137 7.916 4.603z"></path>
<path fill="#1b4f72" style="fill: var(--color1, #1b4f72)" d="M13.151 16.829l-0.008 3.034-10.487-6.099-0.009 3.034 10.487 6.099-0.026 9.103-13.108-7.623 0.009-3.034 10.487 6.098 0.009-3.034-10.487-6.098 0.026-9.103 13.108 7.623z"></path>
<path fill="#5dade2" style="fill: var(--color4, #5dade2)" d="M28.012 9.205l0.009 3.034-10.487 6.098 0.009 3.034 10.487-6.098 0.026 9.103-13.108 7.623-0.009-3.034 10.487-6.099-0.009-3.034-10.487 6.099-0.026-9.103 13.108-7.623z"></path>
</symbol>
<symbol id="icon-Logo" viewBox="0 0 28 32">
<path fill="#fff" style="fill: var(--color2, #fff)" d="M26.891 7.604l-12.979 7.604-2.613-1.521 10.383-6.083-2.613-1.521-10.383 6.083-7.838-4.562 12.979-7.604 2.613 1.521-10.383 6.083 2.613 1.521 10.383-6.083 7.838 4.562z"></path>
<path fill="#fff" style="fill: var(--color2, #fff)" d="M13.204 16.563l-0.008 3.036-10.459-6.103-0.009 3.036 10.459 6.103-0.025 9.109-13.074-7.628 0.009-3.036 10.459 6.103 0.009-3.036-10.459-6.103 0.025-9.11 13.074 7.629z"></path>
<path fill="#fff" style="fill: var(--color2, #fff)" d="M27.989 8.934l0.008 3.036-10.459 6.103 0.008 3.036 10.459-6.103 0.025 9.109-13.074 7.629-0.008-3.036 10.459-6.103-0.009-3.036-10.459 6.103-0.026-9.11 13.074-7.628z"></path>
</symbol>
<symbol id="icon-slider-bg" viewBox="0 0 37 32">
<path fill="#fff" style="fill: var(--color2, #fff)" d="M37.011 8.834c0-0.004 0-0.008 0-0.012 0-4.867-3.945-8.812-8.812-8.812s-8.812 3.945-8.812 8.812 3.946 8.812 8.812 8.812c1 0 1.958-0.174 2.854-0.482-1.983 11.374-10.852 18.709-2.63 12.672 9.117-6.694 8.599-20.734 8.588-20.991z"></path>
<path fill="#fff" style="fill: var(--color2, #fff)" d="M8.812 17.634c1 0 1.958-0.174 2.854-0.482-1.983 11.374-10.853 18.709-2.631 12.672 9.117-6.694 8.599-20.734 8.589-20.991 0-0.004 0-0.008 0-0.012 0-4.867-3.945-8.812-8.812-8.812s-8.812 3.945-8.812 8.812 3.946 8.812 8.812 8.812z"></path>
</symbol>
<symbol id="icon-twitter" viewBox="0 0 32 32">
<path fill="#fff" style="fill: var(--color2, #fff)" d="M29.692 0h-27.384c-1.275 0-2.308 1.033-2.308 2.308v27.384c0 1.275 1.033 2.308 2.308 2.308h27.384c1.275 0 2.308-1.033 2.308-2.308v-27.384c0-1.275-1.033-2.308-2.308-2.308v0zM23.305 12.475c0.007 0.157 0.011 0.316 0.011 0.475 0 4.853-3.694 10.449-10.449 10.449v0c-2.074 0-4.004-0.608-5.629-1.65 0.287 0.034 0.58 0.051 0.876 0.051 1.721 0 3.304-0.587 4.561-1.572-1.608-0.030-2.963-1.092-3.431-2.551 0.224 0.043 0.454 0.066 0.69 0.066 0.335 0 0.66-0.045 0.969-0.129-1.68-0.336-2.946-1.822-2.946-3.6 0-0.017 0-0.031 0-0.047 0.495 0.275 1.061 0.441 1.663 0.459-0.986-0.658-1.634-1.783-1.634-3.057 0-0.673 0.182-1.303 0.497-1.846 1.811 2.222 4.518 3.684 7.57 3.837-0.063-0.269-0.095-0.549-0.095-0.837 0-2.027 1.645-3.672 3.673-3.672 1.056 0 2.011 0.447 2.681 1.16 0.837-0.165 1.622-0.471 2.332-0.891-0.275 0.857-0.857 1.576-1.615 2.031 0.743-0.089 1.451-0.286 2.109-0.578-0.491 0.737-1.115 1.383-1.832 1.902v0z"></path>
</symbol>

<symbol id="icon-logo-letter" viewBox="0 0 8 10">
<path d="M1.75887 9.24553C1.12589 9.05875 0.617454 8.81598 0.233551 8.51723L0.907441 6.99746C1.30705 7.28787 1.75018 7.51074 2.21971 7.65748C2.71008 7.82112 3.22274 7.9052 3.73885 7.90665C4.30236 7.90665 4.71881 7.82163 4.98821 7.65159C5.25761 7.48155 5.39244 7.25526 5.3927 6.97274C5.39433 6.87377 5.37364 6.77573 5.33223 6.68615C5.29081 6.59657 5.22978 6.51782 5.15379 6.45594C4.97241 6.30679 4.76444 6.19461 4.54127 6.12554C4.29194 6.04261 3.95512 5.95105 3.53082 5.85086C2.877 5.6939 2.34193 5.53615 1.92561 5.37762C1.51072 5.22096 1.14187 4.95952 0.853791 4.61793C0.5548 4.26974 0.405304 3.80553 0.405304 3.22529C0.400393 2.73564 0.541259 2.25592 0.809405 1.84914C1.07881 1.4379 1.4851 1.11195 2.02827 0.871273C2.57145 0.630599 3.23505 0.510262 4.01906 0.510262C4.56003 0.509408 5.09903 0.57636 5.62389 0.709603C6.10801 0.826107 6.57106 1.01945 6.99598 1.28251L6.38346 2.81288C5.59121 2.35534 4.79896 2.12657 4.00671 2.12657C3.45118 2.12657 3.04078 2.21813 2.77549 2.40125C2.51021 2.58437 2.37757 2.82517 2.37757 3.12366C2.37757 3.42267 2.53067 3.64503 2.83686 3.79075C3.14306 3.93646 3.61058 4.08034 4.23944 4.22239C4.89275 4.37935 5.42769 4.53709 5.84427 4.69563C6.25678 4.85026 6.62515 5.10641 6.91647 5.44119C7.21443 5.78127 7.36342 6.24208 7.36342 6.82362C7.36698 7.31011 7.22379 7.78602 6.95314 8.18722C6.67962 8.59846 6.26922 8.92441 5.72192 9.16509C5.17463 9.40576 4.50898 9.52623 3.72496 9.52649C3.0598 9.52823 2.39779 9.43363 1.75887 9.24553V9.24553Z" fill="#1B4F72"/>
</symbol>

<symbol id="icon-logo-num" viewBox="0 0 8 10">
<path d="M6.87002 5.06086C7.27014 5.50558 7.4702 6.0556 7.4702 6.71091C7.47345 7.20644 7.3374 7.6926 7.07805 8.11217C6.81689 8.53989 6.41882 8.88246 5.88388 9.13987C5.34893 9.39729 4.69357 9.526 3.91778 9.526C3.31553 9.5262 2.71595 9.44451 2.13501 9.2831C1.55117 9.12091 1.05508 8.89044 0.646729 8.59169L1.41866 7.0472C1.76114 7.30454 2.1444 7.50043 2.55185 7.62638C2.97789 7.763 3.42203 7.83235 3.86876 7.832C4.36665 7.832 4.75866 7.73442 5.04479 7.53927C5.33092 7.34411 5.47386 7.06799 5.4736 6.71091C5.4736 5.997 4.93865 5.63991 3.86876 5.63965H2.96213V4.30548L4.72637 2.27559H1.07553V0.657715H7.07805V1.96559L5.14128 4.20621C5.89237 4.33177 6.46862 4.61666 6.87002 5.06086Z" fill="#1B4F72"/>
</symbol>


<symbol id="icon-hero-letter" viewBox="0 0 8 10">
<path d="M1.75887 9.24553C1.12589 9.05875 0.617454 8.81598 0.233551 8.51723L0.907441 6.99746C1.30705 7.28787 1.75018 7.51074 2.21971 7.65748C2.71008 7.82112 3.22274 7.9052 3.73885 7.90665C4.30236 7.90665 4.71881 7.82163 4.98821 7.65159C5.25761 7.48155 5.39244 7.25526 5.3927 6.97274C5.39433 6.87377 5.37364 6.77573 5.33223 6.68615C5.29081 6.59657 5.22978 6.51782 5.15379 6.45594C4.97241 6.30679 4.76444 6.19461 4.54127 6.12554C4.29194 6.04261 3.95512 5.95105 3.53082 5.85086C2.877 5.6939 2.34193 5.53615 1.92561 5.37762C1.51072 5.22096 1.14187 4.95952 0.853791 4.61793C0.5548 4.26974 0.405304 3.80553 0.405304 3.22529C0.400393 2.73564 0.541259 2.25592 0.809405 1.84914C1.07881 1.4379 1.4851 1.11195 2.02827 0.871273C2.57145 0.630599 3.23505 0.510262 4.01906 0.510262C4.56003 0.509408 5.09903 0.57636 5.62389 0.709603C6.10801 0.826107 6.57106 1.01945 6.99598 1.28251L6.38346 2.81288C5.59121 2.35534 4.79896 2.12657 4.00671 2.12657C3.45118 2.12657 3.04078 2.21813 2.77549 2.40125C2.51021 2.58437 2.37757 2.82517 2.37757 3.12366C2.37757 3.42267 2.53067 3.64503 2.83686 3.79075C3.14306 3.93646 3.61058 4.08034 4.23944 4.22239C4.89275 4.37935 5.42769 4.53709 5.84427 4.69563C6.25678 4.85026 6.62515 5.10641 6.91647 5.44119C7.21443 5.78127 7.36342 6.24208 7.36342 6.82362C7.36698 7.31011 7.22379 7.78602 6.95314 8.18722C6.67962 8.59846 6.26922 8.92441 5.72192 9.16509C5.17463 9.40576 4.50898 9.52623 3.72496 9.52649C3.0598 9.52823 2.39779 9.43363 1.75887 9.24553V9.24553Z" />
</symbol>

<symbol id="icon-hero-num" viewBox="0 0 8 10">
<path d="M6.87002 5.06086C7.27014 5.50558 7.4702 6.0556 7.4702 6.71091C7.47345 7.20644 7.3374 7.6926 7.07805 8.11217C6.81689 8.53989 6.41882 8.88246 5.88388 9.13987C5.34893 9.39729 4.69357 9.526 3.91778 9.526C3.31553 9.5262 2.71595 9.44451 2.13501 9.2831C1.55117 9.12091 1.05508 8.89044 0.646729 8.59169L1.41866 7.0472C1.76114 7.30454 2.1444 7.50043 2.55185 7.62638C2.97789 7.763 3.42203 7.83235 3.86876 7.832C4.36665 7.832 4.75866 7.73442 5.04479 7.53927C5.33092 7.34411 5.47386 7.06799 5.4736 6.71091C5.4736 5.997 4.93865 5.63991 3.86876 5.63965H2.96213V4.30548L4.72637 2.27559H1.07553V0.657715H7.07805V1.96559L5.14128 4.20621C5.89237 4.33177 6.46862 4.61666 6.87002 5.06086Z" />
</symbol>

<symbol id="icon-hero-l" viewBox="0 0 343 45" >
<path d="M7.50556 43.6203C4.38527 42.7075 1.89747 41.5188 0 40.0754L3.31004 32.6887C5.12318 34.0259 7.27365 35.0872 9.76145 35.8938C12.2492 36.7004 14.737 37.1037 17.2248 37.1037C19.9867 37.1037 22.0529 36.6792 23.36 35.8514C24.6882 35.0236 25.3418 33.9198 25.3418 32.5401C25.3418 31.5212 24.9412 30.6934 24.1612 30.0141C23.3811 29.3561 22.3691 28.8042 21.1463 28.4009C19.9235 27.9976 18.2579 27.5519 16.1707 27.0637C12.9661 26.2995 10.3307 25.5353 8.28563 24.75C6.24058 23.9858 4.49069 22.7547 3.01487 21.0566C1.53906 19.3585 0.822239 17.0872 0.822239 14.2641C0.822239 11.8019 1.47581 9.57309 2.80404 7.55658C4.13228 5.56129 6.13516 3.96931 8.79163 2.80186C11.4903 1.67686 14.7581 1.08252 18.6163 1.08252C21.315 1.08252 23.9293 1.40092 26.5014 2.05893C29.0735 2.69573 31.3294 3.62969 33.248 4.83959L30.2331 12.3113C26.3327 10.0825 22.4324 8.97875 18.5531 8.97875C15.8123 8.97875 13.8094 9.4245 12.5022 10.316C11.1951 11.2075 10.5415 12.375 10.5415 13.8396C10.5415 15.3042 11.3005 16.3868 12.7974 17.0872C14.2943 17.7877 16.5924 18.4882 19.6916 19.1887C22.8962 19.9528 25.5316 20.717 27.5766 21.5023C29.6217 22.2665 31.3716 23.4764 32.8474 25.132C34.3232 26.7877 35.04 29.0377 35.04 31.8608C35.04 34.2806 34.3654 36.5094 33.016 38.5047C31.6667 40.5 29.6428 42.092 26.9652 43.2594C24.2666 44.4269 20.9987 45.0212 17.1405 45.0212C13.8305 45 10.6048 44.533 7.50556 43.6203Z" fill="white"/>
<path d="M67.044 23.2639C69.0047 25.429 69.9956 28.1035 69.9956 31.3087C69.9956 33.7709 69.3632 36.0422 68.0771 38.1224C66.791 40.2026 64.8303 41.8794 62.1949 43.1318C59.5595 44.3842 56.3338 45.0209 52.5178 45.0209C49.5451 45.0209 46.6146 44.6176 43.7473 43.8323C40.88 43.0469 38.4343 41.9219 36.4315 40.4573L40.2264 32.9431C41.8287 34.153 43.684 35.087 45.7923 35.7662C47.9006 36.4243 50.0511 36.7639 52.2648 36.7639C54.7104 36.7639 56.6501 36.2969 58.0416 35.3417C59.4541 34.3865 60.1499 33.0493 60.1499 31.3087C60.1499 27.8276 57.5145 26.087 52.2648 26.087H47.8163V19.5917L56.5025 9.70019H38.5608V1.8252H68.0771V8.19312L58.5476 19.1035C62.2371 19.6978 65.0622 21.0988 67.044 23.2639Z" fill="white"/>
<path d="M94.0726 4.22383C93.5877 3.75685 93.3557 3.18373 93.3557 2.50449C93.3557 1.82524 93.5877 1.2309 94.0726 0.742694C94.5575 0.254487 95.1267 0.0209961 95.8225 0.0209961C96.4971 0.0209961 97.0875 0.254487 97.5724 0.721468C98.0573 1.18845 98.2892 1.76156 98.2892 2.44081C98.2892 3.12005 98.0573 3.71439 97.5724 4.2026C97.0875 4.69081 96.5182 4.9243 95.8225 4.9243C95.1478 4.90307 94.5575 4.66958 94.0726 4.22383ZM94.3256 12.6083H97.3405V44.2568H94.3256V12.6083Z" fill="white"/>
<path d="M134.721 15.8346C137.019 18.1483 138.157 21.4596 138.157 25.7898V44.278H135.142V26.0233C135.142 22.4573 134.257 19.7615 132.465 17.8936C130.673 16.0257 128.185 15.1129 124.959 15.1129C121.27 15.1129 118.36 16.2167 116.231 18.4455C114.101 20.6743 113.047 23.6672 113.047 27.4243V44.278H110.032V12.6082H112.921V19.4644C113.996 17.2356 115.619 15.495 117.77 14.2427C119.92 12.9903 122.45 12.3535 125.381 12.3535C129.323 12.3747 132.444 13.521 134.721 15.8346Z" fill="white"/>
<path d="M175.263 15.8346C177.561 18.1483 178.7 21.4596 178.7 25.7898V44.278H175.685V26.0233C175.685 22.4573 174.799 19.7615 173.007 17.8936C171.215 16.0257 168.728 15.1129 165.502 15.1129C161.812 15.1129 158.903 16.2167 156.773 18.4455C154.644 20.6743 153.59 23.6672 153.59 27.4243V44.278H150.575V12.6082H153.463V19.4644C154.539 17.2356 156.162 15.495 158.313 14.2427C160.463 12.9903 162.993 12.3535 165.924 12.3535C169.866 12.3747 172.986 13.521 175.263 15.8346Z" fill="white"/>
<path d="M195.419 42.4528C193.036 41.0731 191.16 39.1627 189.79 36.7217C188.419 34.2807 187.744 31.5212 187.744 28.4434C187.744 25.3656 188.419 22.6061 189.79 20.1651C191.16 17.7241 193.036 15.8137 195.419 14.434C197.801 13.0542 200.479 12.375 203.451 12.375C206.424 12.375 209.102 13.0542 211.484 14.434C213.866 15.8137 215.743 17.7241 217.113 20.1651C218.484 22.6061 219.158 25.3656 219.158 28.4434C219.158 31.5212 218.484 34.2807 217.113 36.7217C215.743 39.1627 213.866 41.0731 211.484 42.4528C209.102 43.8326 206.424 44.5118 203.451 44.5118C200.479 44.5118 197.801 43.8113 195.419 42.4528ZM209.924 40.0755C211.821 38.9505 213.339 37.3585 214.436 35.342C215.532 33.3255 216.101 31.0118 216.101 28.4222C216.101 25.8325 215.553 23.5401 214.436 21.5024C213.339 19.4859 211.821 17.9151 209.924 16.7689C208.026 15.6439 205.855 15.0708 203.451 15.0708C201.048 15.0708 198.876 15.6439 196.979 16.7689C195.081 17.8939 193.563 19.4859 192.467 21.5024C191.371 23.5189 190.801 25.8325 190.801 28.4222C190.801 31.0118 191.35 33.3042 192.467 35.342C193.563 37.3585 195.081 38.9505 196.979 40.0755C198.876 41.2005 201.048 41.7736 203.451 41.7736C205.855 41.7736 208.026 41.2217 209.924 40.0755Z" fill="white"/>
<path d="M252.849 12.6084L238.639 44.257H235.561L221.414 12.6084H224.598L237.121 40.9244L249.771 12.6084H252.849V12.6084Z" fill="white"/>
<path d="M278.022 15.3679C280.109 17.3632 281.163 20.3137 281.163 24.1981V44.2783H278.275V38.632C277.263 40.5 275.808 41.9434 273.869 42.9622C271.95 44.0023 269.631 44.5118 266.932 44.5118C263.433 44.5118 260.671 43.6839 258.647 42.0283C256.623 40.3726 255.611 38.1863 255.611 35.4693C255.611 32.8372 256.538 30.7146 258.415 29.0802C260.291 27.4457 263.264 26.6179 267.354 26.6179H278.127V24.0707C278.127 21.1203 277.326 18.8703 275.745 17.342C274.164 15.8137 271.845 15.0283 268.788 15.0283C266.7 15.0283 264.698 15.3891 262.8 16.1108C260.903 16.8325 259.279 17.8089 257.951 19.0188L256.454 16.8325C258.014 15.4104 259.912 14.3066 262.125 13.5212C264.339 12.7358 266.637 12.3325 269.062 12.3325C272.941 12.375 275.935 13.3726 278.022 15.3679ZM274.016 40.2028C275.85 38.9929 277.221 37.2311 278.149 34.9174V28.974H267.417C264.318 28.974 262.083 29.5471 260.692 30.6721C259.3 31.7971 258.605 33.3679 258.605 35.342C258.605 37.4009 259.364 39.0353 260.903 40.224C262.421 41.4127 264.571 42.007 267.354 42.007C269.968 42.0283 272.182 41.4127 274.016 40.2028Z" fill="white"/>
<path d="M309.162 42.2614C308.403 42.9831 307.454 43.5349 306.294 43.9382C305.156 44.3203 303.954 44.5114 302.71 44.5114C299.97 44.5114 297.861 43.7472 296.385 42.2401C294.91 40.7331 294.151 38.6104 294.151 35.8934V15.2189H288.374V12.6081H294.151V5.70947H297.166V12.6293H307.159V15.2401H297.166V35.6175C297.166 37.6765 297.65 39.2472 298.641 40.3085C299.632 41.3698 301.087 41.9217 303.005 41.9217C304.966 41.9217 306.59 41.3274 307.876 40.1599L309.162 42.2614Z" fill="white"/>
<path d="M342.937 29.1648H315.887C315.971 31.6271 316.583 33.8346 317.763 35.745C318.923 37.6554 320.504 39.1412 322.486 40.2026C324.468 41.2639 326.703 41.7733 329.212 41.7733C331.257 41.7733 333.154 41.3913 334.904 40.6483C336.654 39.9054 338.109 38.8016 339.268 37.337L341.018 39.3323C339.648 40.9879 337.94 42.2615 335.874 43.153C333.808 44.0446 331.573 44.4903 329.148 44.4903C326.007 44.4903 323.224 43.8111 320.778 42.4313C318.333 41.0516 316.414 39.1625 315.023 36.7214C313.631 34.3016 312.935 31.521 312.935 28.4219C312.935 25.3441 313.589 22.5846 314.896 20.1436C316.203 17.7026 317.995 15.7922 320.293 14.4125C322.592 13.0328 325.143 12.3535 328.01 12.3535C330.856 12.3535 333.428 13.0328 335.684 14.3913C337.961 15.7497 339.732 17.6389 341.039 20.0587C342.346 22.4785 343 25.2379 343 28.3158L342.937 29.1648ZM322.043 16.5139C320.272 17.5115 318.86 18.8913 317.806 20.6955C316.752 22.4997 316.119 24.5163 315.971 26.7875H340.069C339.943 24.5163 339.353 22.4997 338.256 20.7167C337.181 18.9337 335.747 17.554 333.976 16.5351C332.205 15.5163 330.224 15.028 328.01 15.028C325.796 15.028 323.814 15.5375 322.043 16.5139Z" fill="white"/>

</symbol>
</defs>
</svg>
