<svg aria-hidden="true" style="position: absolute; width: 0; height: 0; overflow: hidden;" version="1.1" xmlns="http://www.w3.org/2000/svg" xmlns:xlink="http://www.w3.org/1999/xlink">
<defs>
<symbol id="icon-burger-menu" viewBox="0 0 32 32">
<path fill="#1b4f72" style="fill: var(--color1, #1b4f72)" d="M29.055 4.017h-26.11c-1.624 0-2.945 1.321-2.945 2.947 0 1.624 1.321 2.945 2.945 2.945h26.11c1.624 0 2.945-1.321 2.945-2.945 0-1.626-1.321-2.947-2.945-2.947z"></path>
<path fill="#1b4f72" style="fill: var(--color1, #1b4f72)" d="M29.055 13.054h-26.11c-1.624 0-2.945 1.321-2.945 2.947 0 1.624 1.321 2.945 2.945 2.945h26.11c1.624 0 2.945-1.321 2.945-2.945 0-1.626-1.321-2.947-2.945-2.947v0z"></path>
<path fill="#1b4f72" style="fill: var(--color1, #1b4f72)" d="M29.055 22.092h-26.11c-1.624 0-2.945 1.321-2.945 2.947 0 1.624 1.321 2.945 2.945 2.945h26.11c1.624 0 2.945-1.321 2.945-2.945 0-1.626-1.321-2.947-2.945-2.947z"></path>
</symbol>
<symbol id="icon-close-modal" viewBox="0 0 32 32">
<path fill="#1b4f72" style="fill: var(--color1, #1b4f72)" d="M28.241 23.746l-21.1-21.1c-1.312-1.312-3.447-1.312-4.761 0.002-1.312 1.312-1.312 3.447 0 4.76l21.1 21.1c1.312 1.312 3.447 1.312 4.76 0 1.314-1.314 1.314-3.449 0.002-4.761z"></path>
<path fill="#1b4f72" style="fill: var(--color1, #1b4f72)" d="M2.452 23.48l21.1-21.1c1.312-1.312 3.447-1.312 4.761 0.002 1.312 1.312 1.312 3.447 0 4.76l-21.1 21.1c-1.312 1.312-3.447 1.312-4.76 0-1.314-1.314-1.314-3.449-0.002-4.761z"></path>
</symbol>
<symbol id="icon-facebook" viewBox="0 0 33 32">
<path fill="#fff" style="fill: var(--color2, #fff)" d="M27.552 0h-22.625c-2.584 0-4.688 2.103-4.688 4.688v22.625c0 2.584 2.103 4.687 4.688 4.687h9.438v-11.313h-3.75v-5.625h3.75v-3.813c0-3.102 2.523-5.625 5.625-5.625h5.688v5.625h-5.688v3.813h5.688l-0.938 5.625h-4.75v11.313h7.562c2.584 0 4.688-2.103 4.688-4.687v-22.625c0-2.584-2.103-4.688-4.688-4.688z"></path>
</symbol>
<symbol id="icon-input-company" viewBox="0 0 32 32">
<path fill="#2874a6" style="fill: var(--color3, #2874a6)" d="M31.463 14.305l-14.357-13.082c-0.63-0.574-1.581-0.574-2.21-0l-14.357 13.082c-0.505 0.46-0.672 1.169-0.425 1.806s0.847 1.048 1.53 1.048h2.293v13.108c0 0.52 0.421 0.941 0.941 0.941h7.87c0.52 0 0.941-0.421 0.941-0.941v-7.959h4.625v7.959c0 0.52 0.421 0.941 0.941 0.941h7.869c0.52 0 0.941-0.421 0.941-0.941v-13.108h2.294c0.683 0 1.283-0.412 1.53-1.048s0.080-1.346-0.425-1.806z"></path>
<path fill="#2874a6" style="fill: var(--color3, #2874a6)" d="M27.818 2.671h-6.32l7.261 6.602v-5.661c0-0.52-0.421-0.941-0.941-0.941z"></path>
</symbol>
<symbol id="icon-input-email" viewBox="0 0 32 32">
<path fill="#2874a6" style="fill: var(--color3, #2874a6)" d="M21.212 16.163l10.788 6.82v-13.928l-10.788 7.108z"></path>
<path fill="#2874a6" style="fill: var(--color3, #2874a6)" d="M0 9.055v13.928l10.788-6.82-10.788-7.108z"></path>
<path fill="#2874a6" style="fill: var(--color3, #2874a6)" d="M30 5h-28c-0.998 0-1.79 0.744-1.94 1.702l15.94 10.502 15.94-10.502c-0.15-0.958-0.942-1.702-1.94-1.702z"></path>
<path fill="#2874a6" style="fill: var(--color3, #2874a6)" d="M19.38 17.372l-2.83 1.864c-0.168 0.11-0.358 0.164-0.55 0.164s-0.382-0.054-0.55-0.164l-2.83-1.866-12.556 7.942c0.154 0.95 0.942 1.688 1.936 1.688h28c0.994 0 1.782-0.738 1.936-1.688l-12.556-7.94z"></path>
</symbol>
<symbol id="icon-input-message" viewBox="0 0 32 32">
<path fill="#2874a6" style="fill: var(--color3, #2874a6)" d="M4.659 30.088h-2.267l1.603-1.603c0.864-0.864 1.404-1.989 1.549-3.209-3.702-2.429-5.544-5.949-5.544-9.639 0-6.807 6.256-13.724 16.054-13.724 10.38 0 15.946 6.365 15.946 13.128 0 6.807-5.625 13.168-15.946 13.168-1.808 0-3.695-0.241-5.379-0.684-1.595 1.635-3.755 2.562-6.016 2.562z"></path>
</symbol>
<symbol id="icon-input-name" viewBox="0 0 32 32">
<path fill="#2874a6" style="fill: var(--color3, #2874a6)" d="M16 0c-4.652 0-8.438 3.785-8.438 8.438s3.785 8.438 8.438 8.438c4.652 0 8.438-3.785 8.438-8.438s-3.785-8.438-8.438-8.438z"></path>
<path fill="#2874a6" style="fill: var(--color3, #2874a6)" d="M26.498 22.387c-2.31-2.346-5.372-3.637-8.623-3.637h-3.75c-3.251 0-6.313 1.292-8.623 3.637-2.299 2.334-3.565 5.415-3.565 8.675 0 0.518 0.42 0.938 0.938 0.938h26.25c0.518 0 0.938-0.42 0.938-0.938 0-3.26-1.266-6.341-3.565-8.675z"></path>
</symbol>
<symbol id="icon-input-phone" viewBox="0 0 35 32">
<path fill="#2874a6" style="fill: var(--color3, #2874a6)" d="M33.723 23.485l-4.838-4.466c-1.728-1.595-4.665-0.957-5.356 1.116-0.518 1.435-2.246 2.233-3.801 1.914-3.456-0.797-8.121-4.944-8.985-8.293-0.518-1.435 0.518-3.030 2.073-3.509 2.246-0.638 2.937-3.349 1.209-4.944l-4.838-4.466c-1.382-1.116-3.456-1.116-4.665 0l-3.283 3.030c-3.283 3.19 0.346 11.643 8.466 19.139s17.278 11.005 20.734 7.815l3.283-3.030c1.209-1.276 1.209-3.19 0-4.306z"></path>
</symbol>
<symbol id="icon-link" viewBox="0 0 33 32">
<path fill="#fff" style="fill: var(--color2, #fff)" d="M30.172 0h-27.384c-1.275 0-2.308 1.033-2.308 2.308v27.384c0 1.275 1.033 2.308 2.308 2.308h27.384c1.275 0 2.308-1.033 2.308-2.308v-27.384c0-1.275-1.033-2.308-2.308-2.308v0zM11.83 24.187h-3.897v-11.723h3.897v11.723zM9.882 10.863h-0.025c-1.308 0-2.153-0.9-2.153-2.025 0-1.15 0.872-2.026 2.205-2.026s2.153 0.875 2.179 2.026c0 1.125-0.846 2.025-2.205 2.025zM25.881 24.187h-3.896v-6.272c0-1.576-0.564-2.651-1.974-2.651-1.076 0-1.718 0.725-1.999 1.425-0.103 0.25-0.128 0.601-0.128 0.951v6.547h-3.896c0 0 0.051-10.624 0-11.723h3.896v1.66c0.518-0.799 1.444-1.935 3.512-1.935 2.564 0 4.486 1.676 4.486 5.276v6.722z"></path>
</symbol>
<symbol id="icon-Logo-second" viewBox="0 0 28 32">
<path fill="#2874a6" style="fill: var(--color3, #2874a6)" d="M27.178 7.671l-13.108 7.671-2.639-1.535 10.486-6.137-2.639-1.534-10.486 6.137-7.916-4.603 13.108-7.671 2.639 1.534-10.486 6.137 2.639 1.534 10.486-6.137 7.916 4.603z"></path>
<path fill="#1b4f72" style="fill: var(--color1, #1b4f72)" d="M13.151 16.829l-0.008 3.034-10.487-6.099-0.009 3.034 10.487 6.099-0.026 9.103-13.108-7.623 0.009-3.034 10.487 6.098 0.009-3.034-10.487-6.098 0.026-9.103 13.108 7.623z"></path>
<path fill="#5dade2" style="fill: var(--color4, #5dade2)" d="M28.012 9.205l0.009 3.034-10.487 6.098 0.009 3.034 10.487-6.098 0.026 9.103-13.108 7.623-0.009-3.034 10.487-6.099-0.009-3.034-10.487 6.099-0.026-9.103 13.108-7.623z"></path>
</symbol>
<symbol id="icon-Logo" viewBox="0 0 28 32">
<path fill="#fff" style="fill: var(--color2, #fff)" d="M26.891 7.604l-12.979 7.604-2.613-1.521 10.383-6.083-2.613-1.521-10.383 6.083-7.838-4.562 12.979-7.604 2.613 1.521-10.383 6.083 2.613 1.521 10.383-6.083 7.838 4.562z"></path>
<path fill="#fff" style="fill: var(--color2, #fff)" d="M13.204 16.563l-0.008 3.036-10.459-6.103-0.009 3.036 10.459 6.103-0.025 9.109-13.074-7.628 0.009-3.036 10.459 6.103 0.009-3.036-10.459-6.103 0.025-9.11 13.074 7.629z"></path>
<path fill="#fff" style="fill: var(--color2, #fff)" d="M27.989 8.934l0.008 3.036-10.459 6.103 0.008 3.036 10.459-6.103 0.025 9.109-13.074 7.629-0.008-3.036 10.459-6.103-0.009-3.036-10.459 6.103-0.026-9.11 13.074-7.628z"></path>
</symbol>
<symbol id="icon-slider-bg" viewBox="0 0 37 32">
<path fill="#fff" style="fill: var(--color2, #fff)" d="M37.011 8.834c0-0.004 0-0.008 0-0.012 0-4.867-3.945-8.812-8.812-8.812s-8.812 3.945-8.812 8.812 3.946 8.812 8.812 8.812c1 0 1.958-0.174 2.854-0.482-1.983 11.374-10.852 18.709-2.63 12.672 9.117-6.694 8.599-20.734 8.588-20.991z"></path>
<path fill="#fff" style="fill: var(--color2, #fff)" d="M8.812 17.634c1 0 1.958-0.174 2.854-0.482-1.983 11.374-10.853 18.709-2.631 12.672 9.117-6.694 8.599-20.734 8.589-20.991 0-0.004 0-0.008 0-0.012 0-4.867-3.945-8.812-8.812-8.812s-8.812 3.945-8.812 8.812 3.946 8.812 8.812 8.812z"></path>
</symbol>
<symbol id="icon-twitter" viewBox="0 0 32 32">
<path fill="#fff" style="fill: var(--color2, #fff)" d="M29.692 0h-27.384c-1.275 0-2.308 1.033-2.308 2.308v27.384c0 1.275 1.033 2.308 2.308 2.308h27.384c1.275 0 2.308-1.033 2.308-2.308v-27.384c0-1.275-1.033-2.308-2.308-2.308v0zM23.305 12.475c0.007 0.157 0.011 0.316 0.011 0.475 0 4.853-3.694 10.449-10.449 10.449v0c-2.074 0-4.004-0.608-5.629-1.65 0.287 0.034 0.58 0.051 0.876 0.051 1.721 0 3.304-0.587 4.561-1.572-1.608-0.030-2.963-1.092-3.431-2.551 0.224 0.043 0.454 0.066 0.69 0.066 0.335 0 0.66-0.045 0.969-0.129-1.68-0.336-2.946-1.822-2.946-3.6 0-0.017 0-0.031 0-0.047 0.495 0.275 1.061 0.441 1.663 0.459-0.986-0.658-1.634-1.783-1.634-3.057 0-0.673 0.182-1.303 0.497-1.846 1.811 2.222 4.518 3.684 7.57 3.837-0.063-0.269-0.095-0.549-0.095-0.837 0-2.027 1.645-3.672 3.673-3.672 1.056 0 2.011 0.447 2.681 1.16 0.837-0.165 1.622-0.471 2.332-0.891-0.275 0.857-0.857 1.576-1.615 2.031 0.743-0.089 1.451-0.286 2.109-0.578-0.491 0.737-1.115 1.383-1.832 1.902v0z"></path>
</symbol>

<symbol id="icon-logo-letter" viewBox="0 0 8 10">
<path d="M1.75887 9.24553C1.12589 9.05875 0.617454 8.81598 0.233551 8.51723L0.907441 6.99746C1.30705 7.28787 1.75018 7.51074 2.21971 7.65748C2.71008 7.82112 3.22274 7.9052 3.73885 7.90665C4.30236 7.90665 4.71881 7.82163 4.98821 7.65159C5.25761 7.48155 5.39244 7.25526 5.3927 6.97274C5.39433 6.87377 5.37364 6.77573 5.33223 6.68615C5.29081 6.59657 5.22978 6.51782 5.15379 6.45594C4.97241 6.30679 4.76444 6.19461 4.54127 6.12554C4.29194 6.04261 3.95512 5.95105 3.53082 5.85086C2.877 5.6939 2.34193 5.53615 1.92561 5.37762C1.51072 5.22096 1.14187 4.95952 0.853791 4.61793C0.5548 4.26974 0.405304 3.80553 0.405304 3.22529C0.400393 2.73564 0.541259 2.25592 0.809405 1.84914C1.07881 1.4379 1.4851 1.11195 2.02827 0.871273C2.57145 0.630599 3.23505 0.510262 4.01906 0.510262C4.56003 0.509408 5.09903 0.57636 5.62389 0.709603C6.10801 0.826107 6.57106 1.01945 6.99598 1.28251L6.38346 2.81288C5.59121 2.35534 4.79896 2.12657 4.00671 2.12657C3.45118 2.12657 3.04078 2.21813 2.77549 2.40125C2.51021 2.58437 2.37757 2.82517 2.37757 3.12366C2.37757 3.42267 2.53067 3.64503 2.83686 3.79075C3.14306 3.93646 3.61058 4.08034 4.23944 4.22239C4.89275 4.37935 5.42769 4.53709 5.84427 4.69563C6.25678 4.85026 6.62515 5.10641 6.91647 5.44119C7.21443 5.78127 7.36342 6.24208 7.36342 6.82362C7.36698 7.31011 7.22379 7.78602 6.95314 8.18722C6.67962 8.59846 6.26922 8.92441 5.72192 9.16509C5.17463 9.40576 4.50898 9.52623 3.72496 9.52649C3.0598 9.52823 2.39779 9.43363 1.75887 9.24553V9.24553Z" fill="#1B4F72"/>
</symbol>

<symbol id="icon-logo-num" viewBox="0 0 8 10">
<path d="M6.87002 5.06086C7.27014 5.50558 7.4702 6.0556 7.4702 6.71091C7.47345 7.20644 7.3374 7.6926 7.07805 8.11217C6.81689 8.53989 6.41882 8.88246 5.88388 9.13987C5.34893 9.39729 4.69357 9.526 3.91778 9.526C3.31553 9.5262 2.71595 9.44451 2.13501 9.2831C1.55117 9.12091 1.05508 8.89044 0.646729 8.59169L1.41866 7.0472C1.76114 7.30454 2.1444 7.50043 2.55185 7.62638C2.97789 7.763 3.42203 7.83235 3.86876 7.832C4.36665 7.832 4.75866 7.73442 5.04479 7.53927C5.33092 7.34411 5.47386 7.06799 5.4736 6.71091C5.4736 5.997 4.93865 5.63991 3.86876 5.63965H2.96213V4.30548L4.72637 2.27559H1.07553V0.657715H7.07805V1.96559L5.14128 4.20621C5.89237 4.33177 6.46862 4.61666 6.87002 5.06086Z" fill="#1B4F72"/>
</symbol>

</defs>
</svg>
